<?xml version="1.0" encoding="UTF-8"?>
<svg width="700pt" height="700pt" version="1.1" viewBox="0 0 700 700" xmlns="http://www.w3.org/2000/svg" xmlns:xlink="http://www.w3.org/1999/xlink">

 <g>
  <path d="m525.69 280.04 70.145-70.145c7.5586-7.5703 8.2695-19.145 1.5781-25.848-6.6992-6.6992-18.289-5.9805-25.848 1.5781l-70.148 70.133-70.137-70.145c-7.5703-7.5586-19.152-8.2695-25.848-1.5781-6.6797 6.6992-5.9805 18.289 1.5781 25.848l70.145 70.145-70.148 70.141c-7.5586 7.5586-8.2695 19.152-1.5781 25.859 6.707 6.6797 18.289 5.9805 25.848-1.5781l70.141-70.145 70.145 70.145c7.5586 7.5586 19.145 8.2695 25.844 1.5781 6.6914-6.7148 5.9805-18.289-1.5781-25.848z"/>
  <path d="m317.05 89.176-135.01 90.012h-50.434c-18.551 0-33.609 15.066-33.609 33.625l0.011719 134.47c0 18.559 15.059 33.621 33.617 33.621l50.434-0.015625 134.15 89.441c25.098 16.742 50.73 9.9453 50.73-22.199v-336.18c-0.003906-30.84-24.848-39.465-49.891-22.781zm-151.82 258.1h-16.805c-9.2852 0-16.805-4.582-16.805-13.875l-0.003906-106.72c0-9.2695 7.5156-13.871 16.805-13.871h16.805c9.2969 0 16.801 4.5977 16.801 13.887l0.003906 106.71c0.007813 9.2852-7.5039 13.871-16.801 13.871zm165.16 89.137-114.73-73.547v-165.65l114.73-73.539z"/>
  <use x="70" y="644" xlink:href="#u"/>
  <use x="90.550781" y="644" xlink:href="#c"/>
  <use x="104.359375" y="644" xlink:href="#a"/>
  <use x="123.347656" y="644" xlink:href="#e"/>
  <use x="142.242188" y="644" xlink:href="#b"/>
  <use x="155.628906" y="644" xlink:href="#a"/>
  <use x="174.617188" y="644" xlink:href="#k"/>
  <use x="204.410156" y="644" xlink:href="#j"/>
  <use x="224.453125" y="644" xlink:href="#i"/>
  <use x="252.453125" y="644" xlink:href="#f"/>
  <use x="274.121094" y="644" xlink:href="#t"/>
  <use x="283.71875" y="644" xlink:href="#a"/>
  <use x="302.710938" y="644" xlink:href="#h"/>
  <use x="322.640625" y="644" xlink:href="#e"/>
  <use x="351.285156" y="644" xlink:href="#f"/>
  <use x="372.953125" y="644" xlink:href="#c"/>
  <use x="386.765625" y="644" xlink:href="#b"/>
  <use x="400.148438" y="644" xlink:href="#a"/>
  <use x="419.140625" y="644" xlink:href="#g"/>
  <use x="448.3125" y="644" xlink:href="#d"/>
  <use x="467.550781" y="644" xlink:href="#s"/>
  <use x="485.804687" y="644" xlink:href="#e"/>
  <use x="70" y="672" xlink:href="#r"/>
  <use x="82.183594" y="672" xlink:href="#c"/>
  <use x="95.992188" y="672" xlink:href="#d"/>
  <use x="115.226562" y="672" xlink:href="#g"/>
  <use x="154.152344" y="672" xlink:href="#b"/>
  <use x="167.535156" y="672" xlink:href="#q"/>
  <use x="187.46875" y="672" xlink:href="#a"/>
  <use x="216.207031" y="672" xlink:href="#p"/>
  <use x="239.640625" y="672" xlink:href="#d"/>
  <use x="258.878906" y="672" xlink:href="#o"/>
  <use x="278.8125" y="672" xlink:href="#h"/>
  <use x="308.492188" y="672" xlink:href="#n"/>
  <use x="329.015625" y="672" xlink:href="#c"/>
  <use x="342.820312" y="672" xlink:href="#d"/>
  <use x="362.058594" y="672" xlink:href="#m"/>
  <use x="371.65625" y="672" xlink:href="#a"/>
  <use x="390.648438" y="672" xlink:href="#l"/>
  <use x="407.242188" y="672" xlink:href="#b"/>
 </g>
</svg>
